<svg xmlns="http://www.w3.org/2000/svg" viewBox="0 0 157.3 43.26"><defs><style>.cls-1{fill:#24933c;}.cls-2{fill:#fff;}</style></defs><title>Asset 1</title><g id="Layer_2" data-name="Layer 2"><g id="Layer_1-2" data-name="Layer 1"><circle class="cls-1" cx="12.6" cy="33.14" r="10.12"/><path class="cls-1" d="M47.56,33.1A10.12,10.12,0,1,1,37.43,23,10.12,10.12,0,0,1,47.56,33.1Z"/><path class="cls-1" d="M72.23,33.13A10.13,10.13,0,1,1,62.1,23,10.13,10.13,0,0,1,72.23,33.13Z"/><path class="cls-2" d="M9.26,31.33a3.14,3.14,0,0,1,3.4-3.43c2,0,3.26,1.07,3.26,2.72a2.11,2.11,0,0,1-1.35,2.15,2.22,2.22,0,0,1,1.7,2.38c0,2-1.5,3.27-3.69,3.27A3.25,3.25,0,0,1,9,35v-.27l2.06-.1A1.72,1.72,0,0,0,11,35a1.55,1.55,0,0,0,1.58,1.66,1.49,1.49,0,1,0-.11-3,2.37,2.37,0,0,0-.65.08V32a2.7,2.7,0,0,0,.56.07c.92,0,1.47-.46,1.47-1.22a1.2,1.2,0,0,0-1.25-1.24c-.91,0-1.35.59-1.35,1.82Z"/><path class="cls-2" d="M35.93,32.67V29.81h1.85c1.33,0,1.87.39,1.87,1.39s-.66,1.47-2.19,1.47Zm0,1.89h1.56c1.43,0,1.62.2,1.9,2.13A3.13,3.13,0,0,0,40,38.34h2.43a5.06,5.06,0,0,1-.8-2.44C41.32,34,41.11,33.7,40,33.37a2.33,2.33,0,0,0,1.88-2.51c0-1.94-1.22-3-3.54-3H33.59V38.34h2.34Z"/><path class="cls-2" d="M64.52,31.25a2,2,0,0,0-2.14-1.61c-1.71,0-2.72,1.3-2.72,3.49s1,3.5,2.71,3.5a2.07,2.07,0,0,0,2.22-1.9l2.44.14c-.42,2.39-2.1,3.71-4.68,3.71a5.08,5.08,0,0,1-5.21-5.45c0-3.24,2.09-5.45,5.19-5.45,2.45,0,4.18,1.3,4.56,3.42Z"/><path class="cls-2" d="M7.64,14.84H4.39V3H0V.31H12V3H7.64Z"/><path class="cls-2" d="M15.42.31V5.2A3.66,3.66,0,0,1,18.3,3.93,3.4,3.4,0,0,1,21.83,7.6v7.25h-3V8.93c0-1.75-.44-2.38-1.62-2.38s-1.81.85-1.81,2.55v5.74h-3V.31Z"/><path class="cls-2" d="M25.83.31V3h-3V.31Zm0,3.93V14.84h-3V4.23Z"/><path class="cls-2" d="M29.8,4.23l0,1.81a2.8,2.8,0,0,1,2.73-2.12A3.43,3.43,0,0,1,33.1,4V6.79a2.85,2.85,0,0,0-.81-.09c-1.68,0-2.34.83-2.34,3v5.13H26.88V4.23Z"/><path class="cls-2" d="M38.67,6.37c1.29.09,2.07,1.29,2.07,3.17s-.78,3.19-2.16,3.19-2.23-1.24-2.23-3.3c0-1.88.85-3.06,2.2-3.06ZM43.76.31H40.7V5.09a4,4,0,0,0-2.86-1.16c-2.73,0-4.5,2.18-4.5,5.52s1.83,5.74,4.47,5.74a3.78,3.78,0,0,0,2.92-1.31v1h3Z"/><path class="cls-2" d="M52.32,6.94v-4H54.9c1.86,0,2.6.55,2.6,1.94s-.92,2.05-3.06,2.05Zm0,2.64h2.18c2,0,2.25.28,2.64,3a4.47,4.47,0,0,0,.79,2.29h3.38a7,7,0,0,1-1.11-3.41c-.37-2.58-.65-3.05-2.16-3.51a3.24,3.24,0,0,0,2.62-3.49c0-2.71-1.7-4.13-4.93-4.13H49.07V14.84h3.25Z"/><path class="cls-2" d="M68,9.82v.55a2.31,2.31,0,0,1-2.47,2.53c-.87,0-1.46-.46-1.46-1.16s.46-1.09,1.7-1.35c.2,0,.59-.13,1.18-.28A4.77,4.77,0,0,0,68,9.82ZM64.35,7.64c.09-.87.76-1.4,1.88-1.4s1.64.42,1.64,1c0,.46-.31.68-1.07.79-2.68.42-3.45.59-4.37,1A2.8,2.8,0,0,0,61,11.74c0,2.1,1.49,3.45,3.75,3.45A5,5,0,0,0,68,13.95l.15.89H71.4A3.69,3.69,0,0,1,71,12.73V8.23a4.07,4.07,0,0,0-.79-2.88,4.66,4.66,0,0,0-3.8-1.42c-3,0-4.82,1.4-4.89,3.71Z"/><path class="cls-2" d="M75,.31V3H72V.31Zm0,3.93V14.84H72V4.23Z"/><path class="cls-2" d="M79,.31V14.84H76V.31Z"/><path class="cls-2" d="M93.67,5a2.83,2.83,0,0,0-3-2.25c-2.38,0-3.8,1.81-3.8,4.87s1.42,4.87,3.78,4.87a2.89,2.89,0,0,0,3.1-2.64l3.4.2c-.59,3.34-2.92,5.17-6.53,5.17-4.3,0-7.27-3.1-7.27-7.6S86.31,0,90.63,0C94,0,96.44,1.81,97,4.76Z"/><path class="cls-2" d="M101.12,4.23l0,1.81a2.79,2.79,0,0,1,2.73-2.12,3.44,3.44,0,0,1,.61.06V6.79a2.84,2.84,0,0,0-.81-.09c-1.68,0-2.34.83-2.34,3v5.13H98.19V4.23Z"/><path class="cls-2" d="M112.21,8.19h-4.36a2.23,2.23,0,0,1,2.2-1.9A2.14,2.14,0,0,1,112.21,8.19Zm3.14,2.29c0-.24,0-.42,0-.55,0-3.73-2-6-5.22-6a5.35,5.35,0,0,0-5.5,5.67c0,3.43,2.12,5.59,5.46,5.59a5,5,0,0,0,5.13-3.34l-3-.22a2.31,2.31,0,0,1-4.34-1.16Z"/><path class="cls-2" d="M123,9.91v.55A2.31,2.31,0,0,1,120.53,13c-.87,0-1.46-.46-1.46-1.16s.46-1.09,1.71-1.35c.2,0,.59-.13,1.18-.28A4.77,4.77,0,0,0,123,9.91Zm-3.62-2.18c.09-.87.76-1.4,1.88-1.4s1.64.42,1.64,1c0,.46-.31.68-1.07.79-2.68.42-3.45.59-4.36,1A2.8,2.8,0,0,0,116,11.83c0,2.1,1.48,3.45,3.75,3.45A5,5,0,0,0,123.07,14l.15.89h3.21a3.7,3.7,0,0,1-.39-2.12V8.32a4.07,4.07,0,0,0-.78-2.88A4.66,4.66,0,0,0,121.45,4c-3,0-4.83,1.4-4.89,3.71Z"/><path class="cls-2" d="M133.14,4.23V6.53h-1.88v5c0,.81.28,1,1.2,1a6.09,6.09,0,0,0,.83,0v2.29l-.31,0a13.22,13.22,0,0,1-1.9.15,2.66,2.66,0,0,1-2.36-.85,3.23,3.23,0,0,1-.5-2.18V6.55H126.7V4.23h1.53V1h3V4.23Z"/><path class="cls-2" d="M137,.31V3h-3V.31Zm0,3.93V14.84h-3V4.23Z"/><path class="cls-2" d="M147.52,4.23l-3.6,10.61H141L137.39,4.23h3.17l1.88,7.12,1.92-7.12Z"/><path class="cls-2" d="M154.13,8.19h-4.37A2.24,2.24,0,0,1,152,6.29,2.14,2.14,0,0,1,154.13,8.19Zm3.14,2.29c0-.24,0-.42,0-.55,0-3.73-2-6-5.22-6a5.35,5.35,0,0,0-5.5,5.67c0,3.43,2.12,5.59,5.46,5.59a5,5,0,0,0,5.13-3.34l-3-.22a2.31,2.31,0,0,1-4.34-1.16Z"/></g></g></svg>