<svg xmlns="http://www.w3.org/2000/svg" viewBox="0 0 22.69 15.63"><defs><style>.cls-1{fill:#fff;}</style></defs><title>Twitter (alt)</title><g id="Layer_2" data-name="Layer 2"><g id="Layer_1-2" data-name="Layer 1"><path id="Twitter_alt_" data-name="Twitter (alt)" class="cls-1" d="M20.12,6.95a2.76,2.76,0,0,0,2.47-1.47,4,4,0,0,1-2.68.3c0-.18-.08-.36-.12-.52-.6-2.21-2.66-4-4.81-3.77l.53-.2c.24-.08,1.63-.31,1.41-.8S15,.82,14.71.92c.42-.16,1.12-.43,1.2-.92a3.35,3.35,0,0,0-1.78.84,1.23,1.23,0,0,0,.34-.68c-1.73,1.1-2.73,3.33-3.55,5.48A8.43,8.43,0,0,0,9.21,4.27,45,45,0,0,0,3.38,1.71,3.08,3.08,0,0,0,5.32,4.56a4.72,4.72,0,0,0-1.39.17c.19,1,.83,1.86,2.54,2.26a2.08,2.08,0,0,0-1.56.61A2.64,2.64,0,0,0,7.71,9C6,9.72,7,11.11,8.41,10.9A6,6,0,0,1,0,11.12c5.71,7.79,18.13,4.61,20-2.89a3.44,3.44,0,0,0,2.71-1A5.53,5.53,0,0,1,20.12,6.95Z"/></g></g></svg>