<svg xmlns="http://www.w3.org/2000/svg" viewBox="0 0 16.79 16.79"><defs><style>.cls-1{fill:#fff;}</style></defs><title>Facebook (alt)</title><g id="Layer_2" data-name="Layer 2"><g id="Layer_1-2" data-name="Layer 1"><path id="Facebook_alt_" data-name="Facebook (alt)" class="cls-1" d="M16.79,2.8A2.9,2.9,0,0,0,14,0H2.8A2.9,2.9,0,0,0,0,2.8V14a2.9,2.9,0,0,0,2.8,2.8H8.39V10.45H6.34V7.65H8.39V6.56A3.44,3.44,0,0,1,11.54,3H13.8v2.8H11.54c-.25,0-.54.3-.54.75V7.65h2.8v2.8H11v6.34h3a2.9,2.9,0,0,0,2.8-2.8Z"/></g></g></svg>