<svg xmlns="http://www.w3.org/2000/svg" viewBox="0 0 17.24 17.24"><defs><style>.cls-1{fill:#fff;}.cls-2{fill:#333132;}</style></defs><title>Asset 6</title><g id="Layer_2" data-name="Layer 2"><g id="Layer_1-2" data-name="Layer 1"><path class="cls-1" d="M0,12.07V5.17c0-.2.07-.39.08-.59A4.58,4.58,0,0,1,3.78.21C4.24.11,4.71.07,5.17,0h6.9c.2,0,.39.07.59.08A4.56,4.56,0,0,1,17,3.7c.12.51.16,1,.24,1.56V11.9c0,.25-.07.51-.09.76A4.55,4.55,0,0,1,13.54,17c-.54.13-1.1.16-1.65.24H5.26c-.23,0-.45-.07-.68-.09A4.59,4.59,0,0,1,.2,13.42C.11,13,.06,12.52,0,12.07Zm8.57,3.54h0c1.28,0,2.56,0,3.83,0a3.17,3.17,0,0,0,2.44-1.08,3.29,3.29,0,0,0,.75-2.15c0-2.47,0-4.94,0-7.41a3.09,3.09,0,0,0-3.3-3.31C10.2,1.57,8.08,1.57,6,1.57A9.59,9.59,0,0,0,4,1.75a3,3,0,0,0-2.4,3.06c0,2.51-.06,5,0,7.54A3.08,3.08,0,0,0,4.91,15.6C6.13,15.64,7.35,15.61,8.57,15.61Z"/><path class="cls-2" d="M8.57,15.61c-1.22,0-2.44,0-3.66,0a3.08,3.08,0,0,1-3.27-3.25c-.05-2.51,0-5,0-7.54A3,3,0,0,1,4,1.75,9.59,9.59,0,0,1,6,1.57c2.11,0,4.22,0,6.33.06A3.09,3.09,0,0,1,15.6,5c0,2.47,0,4.94,0,7.41a3.29,3.29,0,0,1-.75,2.15A3.17,3.17,0,0,1,12.4,15.6c-1.28,0-2.56,0-3.83,0ZM4.2,8.6A4.42,4.42,0,1,0,8.65,4.2,4.39,4.39,0,0,0,4.2,8.6ZM14.25,4a1,1,0,0,0-1-1,1,1,0,0,0-1,1,1.07,1.07,0,0,0,1.06,1A1,1,0,0,0,14.25,4Z"/><path class="cls-1" d="M4.2,8.6A4.42,4.42,0,1,1,8.61,13,4.39,4.39,0,0,1,4.2,8.6ZM8.6,11.48A2.86,2.86,0,1,0,5.76,8.59,2.83,2.83,0,0,0,8.6,11.48Z"/><path class="cls-1" d="M14.25,4a1,1,0,0,1-1,1.06,1.07,1.07,0,0,1-1.06-1,1,1,0,0,1,1-1A1,1,0,0,1,14.25,4Z"/><path class="cls-2" d="M8.6,11.48a2.86,2.86,0,1,1,2.87-2.85A2.83,2.83,0,0,1,8.6,11.48Z"/></g></g></svg>