<svg xmlns="http://www.w3.org/2000/svg" xmlns:xlink="http://www.w3.org/1999/xlink" version="1.1" x="0px" y="0px" viewBox="0 0 512 512" xml:space="preserve">
<g id="Layer_1">
	<path id="twitter-4-icon" fill="#FFFFFF" d="M256,50C142.229,50,50,142.229,50,256c0,113.771,92.229,206,206,206c113.771,0,206-92.229,206-206   C462,142.229,369.771,50,256,50z"/>
</g>
<g id="Layer_2">
	<path fill="#000000" d="M331.26,256c0,41.57-33.708,75.253-75.26,75.253c-41.566,0-75.26-33.684-75.26-75.253   c0-4.954,0.49-9.786,1.417-14.473h-50.626v100.037c0,21.478,17.396,38.904,38.904,38.904h171.129   c21.48,0,38.904-17.412,38.904-38.904V241.528h-50.611C330.77,246.215,331.26,251.047,331.26,256z M341.564,131.531H170.435   c-21.492,0-38.904,17.428-38.904,38.904v42.141h63.016c13.618-19.244,36.067-31.832,61.453-31.832   c25.385,0,47.834,12.588,61.452,31.832h63.017v-42.141C380.469,148.959,363.045,131.531,341.564,131.531z M360.594,179.583   c0,3.835-3.121,6.951-6.943,6.951h-20.826c-3.822,0-6.948-3.13-6.948-6.951v-20.839c0-3.837,3.144-6.952,6.948-6.952h20.826   c3.833,0,6.943,3.123,6.943,6.952V179.583z M302.315,256c0-25.587-20.741-46.312-46.315-46.312   c-25.576,0-46.315,20.724-46.315,46.312c0,25.586,20.739,46.31,46.315,46.31C281.574,302.311,302.315,281.587,302.315,256z"/>
</g>
</svg>
